<svg width="1009" height="246" viewBox="0 0 1009 246" fill="none" xmlns="http://www.w3.org/2000/svg">
<path d="M281.966 129.548C279.679 129.167 277.201 128.977 274.533 128.977C264.623 128.977 257.898 133.196 254.359 141.636V204.364H239.249V115.99H253.951L254.196 126.2C259.151 118.304 266.175 114.356 275.268 114.356C278.208 114.356 280.441 114.738 281.966 115.5V129.548ZM329.746 193.664C335.137 193.664 339.847 192.03 343.876 188.763C347.905 185.496 350.138 181.413 350.573 176.512H364.867C364.595 181.576 362.852 186.395 359.64 190.969C356.427 195.543 352.125 199.191 346.735 201.913C341.399 204.636 335.736 205.997 329.746 205.997C317.712 205.997 308.129 201.995 300.996 193.991C293.917 185.932 290.378 174.933 290.378 160.994V158.462C290.378 149.858 291.957 142.208 295.115 135.511C298.274 128.813 302.793 123.613 308.674 119.91C314.609 116.208 321.606 114.356 329.664 114.356C339.574 114.356 347.796 117.324 354.331 123.259C360.919 129.194 364.431 136.899 364.867 146.374H350.573C350.138 140.656 347.96 135.973 344.039 132.325C340.173 128.623 335.382 126.771 329.664 126.771C321.987 126.771 316.024 129.548 311.777 135.102C307.585 140.602 305.488 148.579 305.488 159.033V161.892C305.488 172.074 307.585 179.915 311.777 185.415C315.97 190.914 321.96 193.664 329.746 193.664ZM396.966 126.69C403.663 118.468 412.375 114.356 423.102 114.356C441.778 114.356 451.198 124.893 451.362 145.965V204.364H436.252V145.883C436.197 139.513 434.727 134.803 431.841 131.754C429.01 128.704 424.572 127.18 418.528 127.18C413.627 127.18 409.326 128.486 405.623 131.1C401.921 133.714 399.035 137.144 396.966 141.391V204.364H381.855V78.909H396.966V126.69ZM490.403 204.364H475.293V115.99H490.403V204.364ZM474.068 92.549C474.068 90.0987 474.803 88.0295 476.273 86.3416C477.798 84.6536 480.03 83.8096 482.97 83.8096C485.911 83.8096 488.143 84.6536 489.668 86.3416C491.193 88.0295 491.955 90.0987 491.955 92.549C491.955 94.9992 491.193 97.0411 489.668 98.6747C488.143 100.308 485.911 101.125 482.97 101.125C480.03 101.125 477.798 100.308 476.273 98.6747C474.803 97.0411 474.068 94.9992 474.068 92.549ZM528.872 115.99L529.281 125.791C535.76 118.168 544.5 114.356 555.499 114.356C567.859 114.356 576.272 119.094 580.737 128.568C583.677 124.321 587.489 120.891 592.171 118.277C596.909 115.663 602.49 114.356 608.915 114.356C628.3 114.356 638.155 124.62 638.482 145.148V204.364H623.372V146.047C623.372 139.731 621.929 135.021 619.043 131.917C616.157 128.759 611.311 127.18 604.505 127.18C598.896 127.18 594.241 128.868 590.538 132.244C586.835 135.565 584.684 140.057 584.086 145.72V204.364H568.894V146.455C568.894 133.605 562.605 127.18 550.027 127.18C540.117 127.18 533.337 131.4 529.689 139.839V204.364H514.579V115.99H528.872ZM698.024 205.997C686.045 205.997 676.298 202.077 668.784 194.236C661.269 186.34 657.512 175.804 657.512 162.627V159.85C657.512 151.084 659.173 143.27 662.495 136.409C665.871 129.494 670.553 124.103 676.543 120.237C682.587 116.317 689.121 114.356 696.145 114.356C707.634 114.356 716.564 118.141 722.935 125.709C729.306 133.278 732.491 144.114 732.491 158.217V164.506H672.622C672.84 173.218 675.372 180.269 680.218 185.66C685.119 190.996 691.326 193.664 698.841 193.664C704.177 193.664 708.696 192.575 712.399 190.397C716.101 188.219 719.341 185.333 722.118 181.739L731.348 188.927C723.942 200.307 712.834 205.997 698.024 205.997ZM696.145 126.771C690.047 126.771 684.928 129.004 680.79 133.469C676.652 137.879 674.093 144.087 673.113 152.091H717.381V150.947C716.945 143.27 714.876 137.335 711.174 133.142C707.471 128.895 702.461 126.771 696.145 126.771ZM746.376 159.442C746.376 145.883 749.589 134.993 756.014 126.771C762.439 118.495 770.852 114.356 781.252 114.356C791.597 114.356 799.792 117.896 805.836 124.974V78.909H820.946V204.364H807.061L806.326 194.889C800.282 202.294 791.87 205.997 781.088 205.997C770.852 205.997 762.493 201.804 756.014 193.419C749.589 185.034 746.376 174.089 746.376 160.585V159.442ZM761.486 161.157C761.486 171.176 763.555 179.017 767.693 184.68C771.832 190.343 777.549 193.174 784.845 193.174C794.429 193.174 801.426 188.872 805.836 180.269V139.676C801.317 131.345 794.374 127.18 785.009 127.18C777.604 127.18 771.832 130.038 767.693 135.756C763.555 141.473 761.486 149.94 761.486 161.157ZM881.142 205.997C869.162 205.997 859.416 202.077 851.902 194.236C844.387 186.34 840.63 175.804 840.63 162.627V159.85C840.63 151.084 842.291 143.27 845.613 136.409C848.988 129.494 853.671 124.103 859.661 120.237C865.705 116.317 872.239 114.356 879.263 114.356C890.752 114.356 899.682 118.141 906.053 125.709C912.424 133.278 915.609 144.114 915.609 158.217V164.506H855.74C855.958 173.218 858.49 180.269 863.336 185.66C868.237 190.996 874.444 193.664 881.958 193.664C887.295 193.664 891.814 192.575 895.517 190.397C899.219 188.219 902.459 185.333 905.236 181.739L914.465 188.927C907.06 200.307 895.952 205.997 881.142 205.997ZM879.263 126.771C873.165 126.771 868.046 129.004 863.908 133.469C859.77 137.879 857.211 144.087 856.23 152.091H900.499V150.947C900.063 143.27 897.994 137.335 894.291 133.142C890.589 128.895 885.579 126.771 879.263 126.771ZM984.625 180.923C984.625 176.839 983.073 173.681 979.97 171.448C976.92 169.161 971.557 167.201 963.88 165.567C956.256 163.934 950.185 161.974 945.666 159.687C941.201 157.4 937.879 154.677 935.701 151.519C933.578 148.361 932.516 144.604 932.516 140.248C932.516 133.006 935.565 126.88 941.664 121.871C947.817 116.861 955.657 114.356 965.186 114.356C975.205 114.356 983.318 116.943 989.526 122.116C995.788 127.289 998.919 133.904 998.919 141.963H983.727C983.727 137.825 981.957 134.258 978.418 131.263C974.933 128.269 970.523 126.771 965.186 126.771C959.687 126.771 955.385 127.969 952.282 130.365C949.178 132.761 947.626 135.892 947.626 139.758C947.626 143.406 949.069 146.156 951.955 148.007C954.841 149.858 960.041 151.628 967.555 153.316C975.124 155.004 981.249 157.019 985.932 159.36C990.615 161.701 994.072 164.533 996.305 167.854C998.592 171.121 999.735 175.124 999.735 179.861C999.735 187.756 996.577 194.1 990.261 198.891C983.945 203.629 975.75 205.997 965.676 205.997C958.598 205.997 952.336 204.745 946.891 202.24C941.446 199.735 937.171 196.25 934.068 191.785C931.019 187.266 929.494 182.393 929.494 177.165H944.604C944.876 182.229 946.891 186.259 950.648 189.254C954.46 192.194 959.469 193.664 965.676 193.664C971.394 193.664 975.968 192.521 979.398 190.234C982.883 187.892 984.625 184.789 984.625 180.923Z" fill="#121212"/>
<path d="M93.0124 197.056L152 94.887L210.988 197.056H93.0124Z" stroke="#121212" stroke-width="14.887"/>
<path d="M239 7L4.90885 201.953" stroke="#121212" stroke-width="14"/>
</svg>
